<?xml version="1.0" encoding="UTF-8"?><svg id="Lager_2" xmlns="http://www.w3.org/2000/svg" viewBox="0 0 228.42 36.04"><defs><style>.cls-1{fill:#0069ff;}.cls-2{fill:#fff;}.cls-3{fill:#85b9ff;}</style></defs><g id="Layer_1"><g><path class="cls-2" d="m72.42,26.72h-24.58s-.04,5.21-1.42,6.08-2.96,2.58-4.54,2.21-3.63-.83-4.17-1.62-2.38-4.04-2.38-4.04c0,0-5.04,1.87-5.75,4.96.08,1.08.58,1.21.58,1.21l32-.12s6.42.12,10.25-8.67Z"/><path class="cls-1" d="m61.18,0h-19.3c-6.8,0-12.38,5.36-12.73,12.08v.03c-.01.19-.02.38-.02.57-.3,5.25-4.67,9.42-10,9.42-4.86,0-8.91-3.48-9.82-8.07h8.96v-7.42c0-2.94-2.39-5.33-5.32-5.33-2.26,0-4.2,1.42-4.97,3.42-.84-.94-2.06-1.54-3.42-1.54C2.05,3.15,0,5.2,0,7.71v6.31h7.65v9.26c0,7.03,5.72,12.75,12.75,12.75h40.78c7.03,0,12.75-5.72,12.75-12.75v-10.54c0-7.03-5.72-12.75-12.75-12.75Zm-30.68,34.54c.45-2.37,2.38-4.1,4.82-4.17h0c.24,1.67,1.14,3.15,2.41,4.17h-7.24Zm30.68,0h-15.21c1.49-1.21,2.45-3.05,2.45-5.12v-1.98h23.2c-1.66,4.15-5.71,7.1-10.45,7.1Z"/><path class="cls-3" d="m12.95,2.77c2.11,0,3.82,1.72,3.82,3.83v5.92h-7.64v-.3s-.01-5.63-.01-5.63c0-2.11,1.72-3.83,3.83-3.83Z"/><path class="cls-3" d="m1.5,12.52v-4.81c0-1.69,1.37-3.06,3.06-3.06s3.06,1.37,3.06,3.06v4.38h0c0,.05,0,.1,0,.15v.28H1.5Z"/><path class="cls-1" d="m9.15,23.29v-5.48c1.99,3.45,5.72,5.78,9.99,5.78,6.12,0,11.14-4.79,11.49-10.82v-.09c.01-.18.02-.36.02-.54.32-5.92,5.24-10.64,11.23-10.64h19.3c6.2,0,11.25,5.05,11.25,11.25v10.54c0,.92-.12,1.8-.33,2.65h-25.17s0,3.48,0,3.48c0,2.8-2.28,5.08-5.08,5.08s-5-2.2-5.08-4.91l-.02-.73h-1.44c-3.23.1-5.83,2.51-6.31,5.67h-8.59c-6.2,0-11.25-5.05-11.25-11.25Z"/><path class="cls-3" d="m9.15,23.29v-5.48c1.99,3.45,5.72,5.78,9.99,5.78,6.12,0,11.14-4.79,11.49-10.82v-.09c.01-.18.02-.36.02-.54.32-5.92,5.24-10.64,11.23-10.64h19.3c6.2,0,11.25,5.05,11.25,11.25v10.54c0,.92-.12,1.8-.33,2.65h-25.17s0,3.48,0,3.48c0,2.8-2.28,5.08-5.08,5.08s-5-2.2-5.08-4.91l-.02-.73h-1.44c-3.23.1-5.83,2.51-6.31,5.67h-8.59c-6.2,0-11.25-5.05-11.25-11.25Z"/><circle class="cls-1" cx="51.81" cy="21.14" r="1"/><path class="cls-1" d="m48.01,27.46c-2.46,0-4.47-2-4.47-4.47h1.5c0,1.64,1.33,2.97,2.97,2.97v1.5Z"/><g><path class="cls-1" d="m96.18,17.93c.38.74.57,1.61.57,2.61s-.19,1.83-.57,2.58c-.38.75-.91,1.33-1.58,1.74s-1.43.62-2.28.62c-.67,0-1.26-.13-1.76-.38-.5-.26-.91-.6-1.23-1.04l-.26,1.31h-2.3v-13.08h2.63v4.69c.73-.88,1.7-1.33,2.9-1.33.86,0,1.63.2,2.3.59.67.39,1.2.96,1.58,1.7Zm-2.1,2.63c0-.82-.22-1.49-.65-2-.44-.51-1.01-.77-1.72-.77s-1.28.25-1.7.76c-.42.5-.64,1.17-.64,1.99s.21,1.51.64,2.02c.42.51.99.77,1.7.77s1.28-.26,1.72-.77c.44-.51.65-1.18.65-2Z"/><path class="cls-1" d="m103.9,18.14h-1.05c-.75,0-1.3.22-1.64.67-.35.45-.52,1.06-.52,1.83v4.71h-2.63v-9.6h2.39l.24,1.44c.29-.47.64-.83,1.07-1.07.42-.24.99-.36,1.7-.36h.45v2.39Z"/><path class="cls-1" d="m106.68,16.25c.73-.4,1.57-.61,2.53-.61s1.83.19,2.57.57c.74.38,1.32.92,1.74,1.61s.63,1.5.64,2.44c0,.34-.02.64-.07.9h-6.97v.07c.06.7.29,1.25.67,1.64.39.4.92.6,1.59.6.54,0,.98-.12,1.34-.35s.59-.57.7-1.02h2.6c-.1.64-.34,1.21-.73,1.72-.39.51-.9.91-1.53,1.21-.64.29-1.36.44-2.19.44-1.07,0-2-.2-2.77-.6s-1.38-.97-1.79-1.71c-.42-.74-.63-1.6-.63-2.59s.2-1.87.61-2.61.97-1.31,1.7-1.72Zm4.13,1.83c-.39-.32-.89-.48-1.49-.48s-1.06.16-1.45.49c-.39.33-.63.78-.7,1.34h4.35c-.09-.59-.33-1.04-.72-1.35Z"/><path class="cls-1" d="m124.98,25.35h-2.3l-.26-1.33c-.73.96-1.73,1.44-2.99,1.44-.85,0-1.61-.2-2.28-.61-.67-.4-1.2-.98-1.58-1.73-.38-.75-.57-1.61-.57-2.6s.19-1.83.57-2.57c.38-.74.91-1.31,1.59-1.72.68-.4,1.44-.61,2.29-.61,1.25,0,2.21.44,2.9,1.31v-4.67h2.63v13.08Zm-2.6-4.78c0-.83-.21-1.51-.64-2.02-.42-.51-.99-.77-1.7-.77s-1.28.26-1.71.77c-.43.51-.64,1.18-.64,2s.21,1.49.64,2,1,.77,1.71.77,1.28-.25,1.7-.76c.42-.5.64-1.17.64-1.99Z"/><path class="cls-1" d="m136.11,17.93c.38.74.57,1.61.57,2.61s-.19,1.83-.57,2.58c-.38.75-.91,1.33-1.58,1.74s-1.43.62-2.28.62c-.67,0-1.26-.13-1.76-.38-.5-.26-.91-.6-1.23-1.04l-.26,1.31h-2.3v-13.08h2.63v4.69c.73-.88,1.7-1.33,2.9-1.33.86,0,1.63.2,2.3.59.67.39,1.2.96,1.58,1.7Zm-2.1,2.63c0-.82-.22-1.49-.65-2-.44-.51-1.01-.77-1.72-.77s-1.28.25-1.7.76c-.42.5-.64,1.17-.64,1.99s.21,1.51.64,2.02c.42.51.99.77,1.7.77s1.28-.26,1.72-.77c.44-.51.65-1.18.65-2Z"/><path class="cls-1" d="m147.32,25.35h-1.35c-1.21,0-1.8-.52-1.77-1.57-.35.55-.78.97-1.29,1.25-.51.29-1.13.43-1.85.43-1.07,0-1.93-.25-2.59-.74-.65-.49-.98-1.19-.98-2.08,0-1.02.38-1.81,1.13-2.36s1.85-.83,3.28-.83h1.91v-.47c0-.44-.16-.78-.49-1.04-.32-.26-.76-.38-1.31-.38-.49,0-.88.11-1.2.32-.31.21-.5.5-.56.86h-2.54c.09-.98.52-1.75,1.31-2.29.78-.54,1.82-.81,3.12-.81s2.41.3,3.15.9c.74.6,1.11,1.46,1.11,2.6v3.38c0,.24.05.4.15.49.1.09.26.13.47.13h.3v2.22Zm-5.44-4.15c-.55,0-.97.11-1.28.33s-.46.53-.46.93c0,.34.13.6.38.8.26.2.6.3,1.04.3.69,0,1.23-.2,1.63-.59.4-.39.6-.92.62-1.58v-.19h-1.92Z"/><path class="cls-1" d="m157.73,20.14v5.21h-2.63v-5.06c0-1.66-.65-2.49-1.94-2.49-.69,0-1.21.23-1.59.69-.37.46-.56,1.11-.56,1.94v4.91h-2.63v-9.6h2.3l.24,1.2c.34-.41.74-.73,1.21-.96s1.06-.35,1.76-.35c1.12,0,2.04.35,2.77,1.05.72.7,1.08,1.85,1.08,3.46Z"/><path class="cls-1" d="m168.86,25.35h-2.3l-.26-1.33c-.73.96-1.73,1.44-2.99,1.44-.85,0-1.61-.2-2.28-.61-.67-.4-1.2-.98-1.58-1.73-.38-.75-.57-1.61-.57-2.6s.19-1.83.57-2.57c.38-.74.91-1.31,1.59-1.72.68-.4,1.44-.61,2.29-.61,1.25,0,2.21.44,2.9,1.31v-4.67h2.63v13.08Zm-2.6-4.78c0-.83-.21-1.51-.64-2.02-.42-.51-.99-.77-1.7-.77s-1.28.26-1.71.77c-.43.51-.64,1.18-.64,2s.21,1.49.64,2,1,.77,1.71.77,1.28-.25,1.7-.76c.42-.5.64-1.17.64-1.99Z"/><path class="cls-1" d="m173.28,23.19c.37.26.85.39,1.44.39s1-.09,1.33-.27c.32-.18.49-.44.49-.78,0-.25-.07-.44-.22-.56-.15-.12-.36-.21-.64-.27-.27-.06-.72-.12-1.35-.2-.85-.11-1.55-.26-2.11-.43-.56-.17-1.01-.45-1.35-.82-.34-.37-.5-.87-.5-1.49s.17-1.17.51-1.65c.34-.48.83-.85,1.45-1.11s1.34-.39,2.15-.39c1.31.01,2.36.29,3.17.84.8.55,1.24,1.31,1.3,2.28h-2.5c-.04-.36-.23-.66-.57-.89s-.78-.35-1.32-.35c-.5,0-.9.09-1.21.28s-.46.44-.46.75c0,.22.08.39.24.5.16.11.37.19.64.24.26.05.7.11,1.31.17,1.3.15,2.29.43,2.98.83.69.4,1.04,1.1,1.04,2.08,0,.62-.18,1.17-.55,1.64s-.88.84-1.53,1.09c-.65.26-1.41.38-2.27.38-1.33,0-2.42-.3-3.25-.89-.83-.59-1.28-1.4-1.33-2.42h2.5c.04.42.24.77.62,1.03Z"/><path class="cls-1" d="m182.3,15.75l2.32,6.91,2.28-6.91h2.77l-3.46,9.6h-3.27l-3.46-9.6h2.82Z"/><path class="cls-1" d="m199.48,25.35h-1.35c-1.21,0-1.8-.52-1.77-1.57-.35.55-.78.97-1.29,1.25-.51.29-1.13.43-1.85.43-1.07,0-1.93-.25-2.59-.74-.65-.49-.98-1.19-.98-2.08,0-1.02.38-1.81,1.13-2.36s1.85-.83,3.28-.83h1.91v-.47c0-.44-.16-.78-.49-1.04-.32-.26-.76-.38-1.31-.38-.49,0-.88.11-1.2.32-.31.21-.5.5-.56.86h-2.54c.09-.98.52-1.75,1.31-2.29.78-.54,1.82-.81,3.12-.81s2.41.3,3.15.9,1.11,1.46,1.11,2.6v3.38c0,.24.05.4.15.49.1.09.26.13.47.13h.3v2.22Zm-5.44-4.15c-.55,0-.97.11-1.28.33s-.46.53-.46.93c0,.34.13.6.38.8.26.2.6.3,1.04.3.69,0,1.23-.2,1.63-.59.4-.39.6-.92.62-1.58v-.19h-1.92Z"/><path class="cls-1" d="m203.15,12.28v13.08h-2.63v-13.08h2.63Z"/><path class="cls-1" d="m206.28,22.35c.45,0,.83.15,1.13.45.31.3.46.67.46,1.12s-.15.82-.46,1.11-.68.44-1.13.44-.84-.15-1.14-.44c-.3-.29-.45-.66-.45-1.11s.15-.84.45-1.13c.3-.29.68-.44,1.14-.44Z"/><path class="cls-1" d="m211.98,23.19c.37.26.85.39,1.44.39s1-.09,1.33-.27c.32-.18.49-.44.49-.78,0-.25-.07-.44-.22-.56-.15-.12-.36-.21-.64-.27-.27-.06-.72-.12-1.35-.2-.85-.11-1.55-.26-2.11-.43-.56-.17-1.01-.45-1.35-.82-.34-.37-.5-.87-.5-1.49s.17-1.17.51-1.65c.34-.48.83-.85,1.45-1.11s1.34-.39,2.15-.39c1.31.01,2.36.29,3.17.84.8.55,1.24,1.31,1.3,2.28h-2.5c-.04-.36-.23-.66-.57-.89s-.78-.35-1.32-.35c-.5,0-.9.09-1.21.28s-.46.44-.46.75c0,.22.08.39.24.5.16.11.37.19.64.24.26.05.7.11,1.31.17,1.3.15,2.29.43,2.98.83.69.4,1.04,1.1,1.04,2.08,0,.62-.18,1.17-.55,1.64s-.88.84-1.53,1.09c-.65.26-1.41.38-2.27.38-1.33,0-2.42-.3-3.25-.89-.83-.59-1.28-1.4-1.33-2.42h2.5c.04.42.24.77.62,1.03Z"/><path class="cls-1" d="m220.93,16.25c.73-.4,1.57-.61,2.53-.61s1.83.19,2.57.57c.74.38,1.32.92,1.74,1.61s.63,1.5.64,2.44c0,.34-.02.64-.07.9h-6.97v.07c.06.7.29,1.25.67,1.64.39.4.92.6,1.59.6.54,0,.98-.12,1.34-.35s.59-.57.7-1.02h2.6c-.1.64-.34,1.21-.73,1.72s-.9.91-1.53,1.21c-.64.29-1.36.44-2.19.44-1.07,0-2-.2-2.77-.6s-1.38-.97-1.79-1.71c-.42-.74-.63-1.6-.63-2.59s.2-1.87.61-2.61.97-1.31,1.7-1.72Zm4.13,1.83c-.39-.32-.89-.48-1.49-.48s-1.06.16-1.45.49c-.39.33-.63.78-.7,1.34h4.35c-.09-.59-.33-1.04-.72-1.35Z"/></g></g></g></svg>